# xmcd
#
# Track frame offsets: 
#        183
#        12810
#        26128
#        38570
#        53085
#        65890
#        77968
#        89088
#        103300
#        115638
#        129708
#        140285
#        152943
#        166390
#        177480
#        189358
#        201743
#        214855
#        228498
#        239578
#
# Disc length: 3365 seconds
#
# Revision: 0
# Processed by: cddbd v1.5.2PL0 Copyright (c) Steve Scherf et al.
# Submitted via: ExactAudioCopy v0.95b4
#
DISCID=2b0d2314
DTITLE=B.B. King - The Essential B.B. King
DYEAR=1994
DGENRE=Blues
TTITLE0=Highway Bound
TTITLE1=Blind Love
TTITLE2=Please Hurry Home
TTITLE3=Why Did You Leave Me
TTITLE4=Praying To The Lord
TTITLE5=The Woman I Love
TTITLE6=Everything I Do Is Wrong
TTITLE7=Whole Lot Of Love
TTITLE8=Shut Your Mouth
TTITLE9=Boogie Rock
TTITLE10=Talking' The Blues
TTITLE11=Ten Long Years
TTITLE12=Crying Won't Help You
TTITLE13=Let's Do The Boogie
TTITLE14=Dark Is The Night Pt. 1
TTITLE15=Dark Is The Night Pt. 2
TTITLE16=Bad Luck
TTITLE17=Sweet Little Angel
TTITLE18=You Don't Know
TTITLE19=Be Careful With A Fool
EXTD=
EXTT0=
EXTT1=
EXTT2=
EXTT3=
EXTT4=
EXTT5=
EXTT6=
EXTT7=
EXTT8=
EXTT9=
EXTT10=
EXTT11=
EXTT12=
EXTT13=
EXTT14=
EXTT15=
EXTT16=
EXTT17=
EXTT18=
EXTT19=
PLAYORDER=
